<svg width="37" height="27" viewBox="0 0 37 27" fill="none" xmlns="http://www.w3.org/2000/svg">
<path d="M2.04155 0L34.9584 0C36.0842 0 37 0.91922 37 2.04909V24.9509C37 26.0808 36.0842 27 34.9584 27L2.04155 27C0.915836 27 0 26.0808 0 24.9509V2.04909C0 0.91922 0.915836 0 2.04155 0ZM15.7651 12.8899L18.22 15.0497C18.3796 15.1901 18.6204 15.1901 18.78 15.0496L21.2349 12.8898L34.043 1.62263L2.957 1.62263L15.7651 12.8899ZM22.9941 13.5L35.3833 24.3987V2.60128L22.9941 13.5ZM21.7678 14.5788L19.8456 16.2698C19.462 16.6074 18.9811 16.7761 18.5 16.7761C18.019 16.7761 17.5379 16.6073 17.1544 16.2699L15.2322 14.5788L2.95703 25.3773L34.043 25.3773L21.7678 14.5788ZM14.0059 13.5L1.61666 2.60125V24.3987L14.0059 13.5Z" fill="white"/>
</svg>
