<svg width="23" height="43" viewBox="0 0 23 43" fill="none" xmlns="http://www.w3.org/2000/svg">
<path d="M21.489 24.1875H15.1934V43H6.79927V24.1875H0V16.377H6.79927V10.498C6.79927 8.25846 7.21898 6.35482 8.05839 4.78711C8.89781 3.2194 10.073 2.04362 11.5839 1.25977C13.1509 0.419922 14.9416 0 16.9562 0C17.8516 0 18.8029 0.0559896 19.8102 0.167969C20.8175 0.223958 21.601 0.307943 22.1606 0.419922L23 0.503906V7.13867H19.6423C18.0754 7.13867 16.9282 7.55859 16.2007 8.39844C15.5292 9.18229 15.1934 10.1621 15.1934 11.3379V16.377H22.6642L21.489 24.1875Z" fill="#DBDBDB"/>
</svg>
