<svg width="80" height="79" viewBox="0 0 80 79" fill="none" xmlns="http://www.w3.org/2000/svg">
<path d="M9.74782 51.9663V51.9663C4.59158 51.9663 0.494475 56.3079 0.780324 61.4562V61.4562C1.04513 66.2256 4.99026 69.9663 9.76697 69.9663H47.7254" stroke="#FFAC30"/>
<path d="M0.753052 60.9663L0.753052 14.461C0.753052 9.49337 4.78012 5.46631 9.74775 5.46631V5.46631V52.4663" stroke="#FFAC30"/>
<line x1="9.24805" y1="17.9663" x2="46.2262" y2="17.9663" stroke="#FFAC30"/>
<line x1="61.2174" y1="17.9663" x2="72.2109" y2="17.9663" stroke="#FFAC30"/>
<line x1="71.7109" y1="46.4663" x2="71.7109" y2="18.4663" stroke="#FFAC30"/>
<path d="M36.4019 42.6388L67.5503 11.472C69.5767 9.44443 69.5767 6.15713 67.5503 4.12959V4.12959C65.524 2.10205 62.2386 2.10205 60.2123 4.12959L29.0638 35.2964" stroke="#FFAC30"/>
<path d="M28.9324 35.8696L35.8202 42.7615L25.69 46.0059L28.9324 35.8696Z" fill="#FFAC30" stroke="#FFAC30"/>
<path d="M67.4299 4.13741C69.4562 6.16495 69.4562 9.45224 67.4299 11.4798L64.5579 14.3534L57.2198 7.01105L60.0918 4.1374C62.1182 2.10986 65.4035 2.10987 67.4299 4.13741Z" fill="#FFAC30"/>
<line y1="-0.5" x2="9.89658" y2="-0.5" transform="matrix(0.706898 0.707315 -0.706898 0.707315 55.2209 9.46631)" stroke="#FFAC30"/>
<line y1="-0.5" x2="9.89658" y2="-0.5" transform="matrix(0.706898 0.707315 -0.706898 0.707315 29.2363 35.4663)" stroke="#FFAC30"/>
<line x1="20.7416" y1="46.9663" x2="52.7221" y2="46.9663" stroke="#FFAC30" stroke-linecap="round"/>
<path d="M56.2205 61.4663L79.2069 38.4663V78.4663H39.2305L52.2228 65.4663" stroke="#FFAC30" stroke-linecap="round"/>
<path d="M59.4258 69.9663L69.7122 59.6739V69.9663H59.4258Z" stroke="#FFAC30"/>
<line x1="74.7098" y1="51.9663" x2="78.7069" y2="51.9663" stroke="#FFAC30" stroke-linecap="round"/>
<line x1="74.7098" y1="58.9663" x2="78.7069" y2="58.9663" stroke="#FFAC30" stroke-linecap="round"/>
<line x1="74.7098" y1="63.9663" x2="78.7069" y2="63.9663" stroke="#FFAC30" stroke-linecap="round"/>
<line x1="74.7098" y1="69.9663" x2="78.7069" y2="69.9663" stroke="#FFAC30" stroke-linecap="round"/>
</svg>
