<svg width="76" height="87" viewBox="0 0 76 87" fill="none" xmlns="http://www.w3.org/2000/svg">
<path d="M9.13 26.8789H6.63C3.3163 26.8789 0.630005 24.1926 0.630005 20.8789V6.87891C0.630005 3.5652 3.3163 0.878906 6.63001 0.878906H60.63C63.9437 0.878906 66.63 3.5652 66.63 6.87891V20.8789C66.63 24.1926 63.9437 26.8789 60.63 26.8789H34.13" stroke="#FFAC30"/>
<rect x="46.13" y="49.3789" width="37" height="18" rx="5.5" transform="rotate(90 46.13 49.3789)" stroke="#FFAC30"/>
<path d="M9.63 1.37891V42.8789C9.63 46.7449 12.764 49.8789 16.63 49.8789V49.8789C20.496 49.8789 23.63 46.7449 23.63 42.8789V23.3789" stroke="#FFAC30"/>
<path d="M33.63 1.37891V33.8789C33.63 36.6403 31.3914 38.8789 28.63 38.8789V38.8789C25.8686 38.8789 23.63 36.6403 23.63 33.8789V20.848" stroke="#FFAC30"/>
<path d="M66.13 13.8789H74.63C74.63 17.2122 74.63 24.7789 74.63 28.3789C74.63 32.8789 72.13 33.8789 67.13 35.3789C62.13 36.8789 46.63 41.3789 43.13 42.3789C39.63 43.3789 37.13 44.8789 37.13 49.3789" stroke="#FFAC30"/>
<rect x="27.63" y="56.8789" width="19" height="8" fill="#FFAC30"/>
</svg>
