<svg width="77" height="86" viewBox="0 0 77 86" fill="none" xmlns="http://www.w3.org/2000/svg">
<path d="M8.25 31.1875V77.6875C8.25 81.0012 10.9363 83.6875 14.25 83.6875H55.75" stroke="#FFAC30" stroke-linecap="round"/>
<path d="M1.25 36.2886L38.25 8.28857L76.0518 36.2886" stroke="#FFAC30" stroke-linecap="round" stroke-linejoin="round"/>
<circle cx="37.75" cy="51.1875" r="17" stroke="#FFAC30"/>
<path fill-rule="evenodd" clip-rule="evenodd" d="M37.75 62.6875C44.1013 62.6875 49.25 57.5388 49.25 51.1875C49.25 44.8362 44.1013 39.6875 37.75 39.6875C31.3987 39.6875 26.25 44.8362 26.25 51.1875C26.25 57.5388 31.3987 62.6875 37.75 62.6875ZM44.0933 47.551C44.2941 47.3614 44.3031 47.0449 44.1135 46.8442C43.9239 46.6434 43.6074 46.6344 43.4067 46.824L35.2794 54.4998L32.0933 51.4907C31.8926 51.3011 31.5761 51.3101 31.3865 51.5109C31.1969 51.7116 31.2059 52.0281 31.4067 52.2177L35.2794 55.8752L44.0933 47.551Z" fill="#FFAC30"/>
<path d="M52.614 60.3946L68.4896 76.2702C70.0517 77.8323 70.0517 80.365 68.4896 81.9271C66.9275 83.4892 64.3949 83.4892 62.8328 81.9271L46.9572 66.0515L52.614 60.3946Z" stroke="#FFAC30"/>
<line x1="67.75" y1="30.1875" x2="67.75" y2="68.1875" stroke="#FFAC30" stroke-linecap="round"/>
</svg>
