<svg width="77" height="94" viewBox="0 0 77 94" fill="none" xmlns="http://www.w3.org/2000/svg">
<path d="M36.9788 1.4585H7C3.68629 1.4585 1 4.14479 1 7.4585V65.4585C1 68.7722 3.68629 71.4585 6.99999 71.4585H44.9705C48.2842 71.4585 50.9705 68.7722 50.9705 65.4585V23.4585" stroke="#FFAC30" stroke-linejoin="round"/>
<path d="M25.9853 71.4585L25.9853 87.4585C25.9853 90.7722 28.6715 93.4585 31.9853 93.4585H69.9558C73.2695 93.4585 75.9558 90.7722 75.9558 87.4585V46.4585" stroke="#FFAC30" stroke-linejoin="round"/>
<path d="M36.9788 15.4585H51.97L36.9788 1.4585V15.4585Z" fill="#FFAC30" stroke="#FFAC30" stroke-linejoin="round"/>
<path d="M60.9646 37.4585H75.9558L60.9646 23.4585V37.4585Z" fill="#FFAC30" stroke="#FFAC30" stroke-linejoin="round"/>
<line x1="60.9646" y1="23.9585" x2="50.9705" y2="23.9585" stroke="#FFAC30"/>
<line x1="40.9764" y1="59.9585" x2="10.9941" y2="59.9585" stroke="#FFAC30"/>
<line x1="40.9764" y1="51.9585" x2="10.9941" y2="51.9585" stroke="#FFAC30"/>
<line x1="40.9764" y1="42.9585" x2="10.9941" y2="42.9585" stroke="#FFAC30"/>
</svg>
