<svg width="101" height="101" viewBox="0 0 101 101" fill="none" xmlns="http://www.w3.org/2000/svg">
<path d="M86.5125 72.2486L21.8315 7.52956C17.9286 3.62432 11.6007 3.62432 7.69775 7.52956V7.52956C3.79481 11.4348 3.79481 17.7665 7.69775 21.6717L72.3787 86.3908" stroke="#FFAC30"/>
<path d="M86.4028 72.0908L93.6381 93.5205L72.221 86.281" stroke="#FFAC30"/>
<path d="M7.69775 7.52956C11.6007 3.62432 17.9286 3.62432 21.8315 7.52956L27.3632 13.0645L13.2294 27.2066L7.69774 21.6717C3.7948 17.7665 3.79481 11.4348 7.69775 7.52956Z" fill="#FFAC30"/>
<line y1="-0.5" x2="19.7932" y2="-0.5" transform="matrix(0.706898 -0.707315 0.706898 0.707315 17.6209 31.4585)" stroke="#FFAC30"/>
<line x1="0.5" y1="-0.5" x2="7.98278" y2="-0.5" transform="matrix(0.706898 0.707315 -0.706898 0.707315 24.6168 24.4585)" stroke="#FFAC30" stroke-linecap="round"/>
<line x1="0.5" y1="-0.5" x2="63.1209" y2="-0.5" transform="matrix(0.706898 0.707315 -0.706898 0.707315 34.6109 34.4585)" stroke="#FFAC30" stroke-linecap="round"/>
<path d="M49.1023 35.1343L78.3461 5.87323C80.6886 3.52939 84.4865 3.52939 86.8289 5.87322L92.4799 11.5276C94.8224 13.8714 94.8224 17.6715 92.4799 20.0154L63.5539 48.9585M49.1023 63.4185L20.0055 92.5325C17.663 94.8764 13.8652 94.8764 11.5227 92.5325L5.8717 86.8782C3.52925 84.5343 3.52925 80.7342 5.8717 78.3904L35.2862 48.9585" stroke="#FFAC30"/>
<line x1="0.5" y1="-0.5" x2="11.4965" y2="-0.5" transform="matrix(-0.706898 -0.707315 0.706898 -0.707315 73.7299 37.9146)" stroke="#FFAC30" stroke-linecap="round" stroke-linejoin="round"/>
<line x1="0.5" y1="-0.5" x2="11.4965" y2="-0.5" transform="matrix(-0.706898 -0.707315 0.706898 -0.707315 90.6904 20.9438)" stroke="#FFAC30" stroke-linecap="round" stroke-linejoin="round"/>
<line x1="0.5" y1="-0.5" x2="4.49853" y2="-0.5" transform="matrix(-0.706898 -0.707315 0.706898 -0.707315 79.3835 32.2573)" stroke="#FFAC30" stroke-linecap="round" stroke-linejoin="round"/>
<line x1="0.5" y1="-0.5" x2="4.49853" y2="-0.5" transform="matrix(-0.706898 -0.707315 0.706898 -0.707315 68.0764 43.5713)" stroke="#FFAC30" stroke-linecap="round" stroke-linejoin="round"/>
<line x1="0.5" y1="-0.5" x2="4.49853" y2="-0.5" transform="matrix(-0.706898 -0.707315 0.706898 -0.707315 85.037 26.6006)" stroke="#FFAC30" stroke-linecap="round" stroke-linejoin="round"/>
<line x1="0.5" y1="-0.5" x2="11.4965" y2="-0.5" transform="matrix(-0.706898 -0.707315 0.706898 -0.707315 38.7504 73.6509)" stroke="#FFAC30" stroke-linecap="round" stroke-linejoin="round"/>
<line x1="0.5" y1="-0.5" x2="11.4965" y2="-0.5" transform="matrix(-0.706898 -0.707315 0.706898 -0.707315 21.1041 90.3877)" stroke="#FFAC30" stroke-linecap="round" stroke-linejoin="round"/>
<line x1="0.5" y1="-0.5" x2="4.49853" y2="-0.5" transform="matrix(-0.706898 -0.707315 0.706898 -0.707315 44.4041 67.9941)" stroke="#FFAC30" stroke-linecap="round" stroke-linejoin="round"/>
<line x1="0.5" y1="-0.5" x2="4.49853" y2="-0.5" transform="matrix(-0.706898 -0.707315 0.706898 -0.707315 26.7578 84.731)" stroke="#FFAC30" stroke-linecap="round" stroke-linejoin="round"/>
<line x1="0.5" y1="-0.5" x2="4.49853" y2="-0.5" transform="matrix(-0.706898 -0.707315 0.706898 -0.707315 33.097 79.3076)" stroke="#FFAC30" stroke-linecap="round" stroke-linejoin="round"/>
</svg>
