<svg width="38" height="38" viewBox="0 0 38 38" fill="none" xmlns="http://www.w3.org/2000/svg">
<path d="M12.0446 12.1295C13.9673 10.2068 16.2857 9.24554 19 9.24554C21.7143 9.24554 24.0045 10.2068 25.8705 12.1295C27.7932 13.9955 28.7545 16.2857 28.7545 19C28.7545 21.7143 27.7932 24.0327 25.8705 25.9554C24.0045 27.8214 21.7143 28.7545 19 28.7545C16.2857 28.7545 13.9673 27.8214 12.0446 25.9554C10.1786 24.0327 9.24554 21.7143 9.24554 19C9.24554 16.2857 10.1786 13.9955 12.0446 12.1295ZM14.5045 23.4955C15.7485 24.7396 17.247 25.3616 19 25.3616C20.753 25.3616 22.2515 24.7396 23.4955 23.4955C24.7396 22.2515 25.3616 20.753 25.3616 19C25.3616 17.247 24.7396 15.7485 23.4955 14.5045C22.2515 13.2604 20.753 12.6384 19 12.6384C17.247 12.6384 15.7485 13.2604 14.5045 14.5045C13.2604 15.7485 12.6384 17.247 12.6384 19C12.6384 20.753 13.2604 22.2515 14.5045 23.4955ZM30.7054 7.29464C31.1577 7.69048 31.3839 8.1994 31.3839 8.82143C31.3839 9.44345 31.1577 9.98066 30.7054 10.433C30.3095 10.8854 29.8006 11.1116 29.1786 11.1116C28.5565 11.1116 28.0193 10.8854 27.567 10.433C27.1146 9.98066 26.8884 9.44345 26.8884 8.82143C26.8884 8.1994 27.1146 7.69048 27.567 7.29464C28.0193 6.84226 28.5565 6.61607 29.1786 6.61607C29.8006 6.61607 30.3095 6.84226 30.7054 7.29464ZM37.9152 11.1964C37.9717 12.7232 38 15.3244 38 19C38 22.6756 37.9717 25.2768 37.9152 26.8036C37.7455 30.253 36.6994 32.939 34.7768 34.8616C32.9107 36.7277 30.253 37.7173 26.8036 37.8304C25.2768 37.9435 22.6756 38 19 38C15.3244 38 12.7232 37.9435 11.1964 37.8304C7.74702 37.6607 5.08929 36.6429 3.22321 34.7768C2.4881 34.0982 1.89435 33.3065 1.44196 32.4018C0.989583 31.497 0.650298 30.6205 0.424107 29.7723C0.254464 28.9241 0.169643 27.9345 0.169643 26.8036C0.0565476 25.2768 0 22.6756 0 19C0 15.3244 0.0565476 12.6949 0.169643 11.1116C0.339286 7.71875 1.35714 5.08929 3.22321 3.22321C5.08929 1.3006 7.74702 0.254464 11.1964 0.0848214C12.7232 0.0282738 15.3244 0 19 0C22.6756 0 25.2768 0.0282738 26.8036 0.0848214C30.253 0.254464 32.9107 1.3006 34.7768 3.22321C36.6994 5.08929 37.7455 7.74702 37.9152 11.1964ZM33.8438 30.1964C34.0134 29.744 34.1548 29.1786 34.2679 28.5C34.381 27.7649 34.4658 26.9167 34.5223 25.9554C34.5789 24.9375 34.6071 24.1176 34.6071 23.4955C34.6071 22.8735 34.6071 21.997 34.6071 20.8661C34.6071 19.7351 34.6071 19.1131 34.6071 19C34.6071 18.8304 34.6071 18.2083 34.6071 17.1339C34.6071 16.003 34.6071 15.1265 34.6071 14.5045C34.6071 13.8824 34.5789 13.0908 34.5223 12.1295C34.4658 11.1116 34.381 10.2634 34.2679 9.58482C34.1548 8.8497 34.0134 8.25595 33.8438 7.80357C33.1652 6.0506 31.9494 4.83482 30.1964 4.15625C29.744 3.98661 29.1503 3.84524 28.4152 3.73214C27.7366 3.61905 26.8884 3.53423 25.8705 3.47768C24.9092 3.42113 24.1176 3.39286 23.4955 3.39286C22.9301 3.39286 22.0536 3.39286 20.8661 3.39286C19.7351 3.39286 19.1131 3.39286 19 3.39286C18.8869 3.39286 18.2649 3.39286 17.1339 3.39286C16.003 3.39286 15.1265 3.39286 14.5045 3.39286C13.8824 3.39286 13.0625 3.42113 12.0446 3.47768C11.0833 3.53423 10.2351 3.61905 9.5 3.73214C8.82143 3.84524 8.25595 3.98661 7.80357 4.15625C6.0506 4.83482 4.83482 6.0506 4.15625 7.80357C3.98661 8.25595 3.84524 8.8497 3.73214 9.58482C3.61905 10.2634 3.53423 11.1116 3.47768 12.1295C3.42113 13.0908 3.39286 13.8824 3.39286 14.5045C3.39286 15.0699 3.39286 15.9464 3.39286 17.1339C3.39286 18.2649 3.39286 18.8869 3.39286 19C3.39286 19.2262 3.39286 19.7634 3.39286 20.6116C3.39286 21.4033 3.39286 22.0818 3.39286 22.6473C3.39286 23.1563 3.39286 23.8348 3.39286 24.683C3.4494 25.5313 3.50595 26.2664 3.5625 26.8884C3.61905 27.4539 3.70387 28.0476 3.81696 28.6696C3.93006 29.2917 4.04316 29.8006 4.15625 30.1964C4.89137 31.9494 6.10714 33.1652 7.80357 33.8438C8.25595 34.0134 8.82143 34.1548 9.5 34.2679C10.2351 34.381 11.0833 34.4658 12.0446 34.5223C13.0625 34.5789 13.8542 34.6071 14.4196 34.6071C15.0417 34.6071 15.9182 34.6071 17.0491 34.6071C18.2366 34.6071 18.8869 34.6071 19 34.6071C19.1696 34.6071 19.7917 34.6071 20.8661 34.6071C21.997 34.6071 22.8735 34.6071 23.4955 34.6071C24.1176 34.6071 24.9092 34.5789 25.8705 34.5223C26.8884 34.4658 27.7366 34.381 28.4152 34.2679C29.1503 34.1548 29.744 34.0134 30.1964 33.8438C31.9494 33.1086 33.1652 31.8929 33.8438 30.1964Z" fill="#DBDBDB"/>
</svg>
