<svg width="74" height="67" viewBox="0 0 74 67" fill="none" xmlns="http://www.w3.org/2000/svg">
<path d="M30.7985 27.2635C28.6018 28.0676 26.8181 29.2875 25.0178 30.4798C23.6965 31.3393 22.3917 32.2265 21.0044 33.0167C20.5584 33.2801 19.8813 33.3356 19.3032 33.3633C17.8663 33.4187 16.991 32.5038 17.3213 31.3393C17.8002 29.6618 18.7747 28.1646 19.8813 26.7367C21.7806 24.2691 24.2415 22.3144 27.231 20.7895C28.9982 19.8884 30.8975 19.4447 32.9621 19.4309C36.1662 19.4031 39.3538 19.3754 42.5579 19.3616C42.8883 19.3616 43.3342 19.4447 43.5159 19.6388C43.9453 20.0963 44.4738 20.1518 45.0849 20.1379C45.3987 20.124 45.7125 20.1379 46.0098 20.1795C46.5714 20.2765 46.9512 20.2211 47.0834 19.6527C47.1164 19.5002 47.4963 19.32 47.7275 19.32C49.3296 19.32 50.9482 19.3477 52.5502 19.4309C53.376 19.4725 53.8715 19.9715 53.8715 20.6647C53.888 23.0353 53.888 25.392 53.9045 27.7626C53.9045 28.3033 53.5577 28.5944 52.9466 28.6082C51.4271 28.6498 49.9241 28.6776 48.4047 28.6776C47.711 28.6776 47.2155 28.3864 47.0338 27.818C46.9182 27.4576 46.687 27.4022 46.3071 27.4022C45.9272 27.4022 45.5474 27.416 45.1675 27.3744C44.1435 27.2358 43.4333 27.6517 42.8883 28.3171C42.0625 29.3153 41.4844 30.3134 41.5174 31.6581C41.6661 38.0074 41.6991 44.3428 41.6991 50.6921C41.7156 55.0451 41.633 59.3982 41.567 63.765C41.567 64.1116 41.3192 64.5414 41.0385 64.8048C39.4859 66.2742 37.6031 66.9674 35.2578 66.3297C34.1182 66.0247 33.2098 65.3731 32.5987 64.5414C32.3345 64.1948 32.351 63.668 32.351 63.2244C32.3345 57.3187 32.351 51.413 32.351 45.4935C32.351 41.3346 32.351 37.1756 32.351 33.0167C32.351 32.684 32.3179 32.3374 32.384 32.0047C32.8134 30.1886 31.9381 28.7191 30.7985 27.2635ZM35.4395 29.2459C36.2653 29.2459 37.2728 29.1905 38.2803 29.2598C39.007 29.3153 39.3043 29.1766 39.4694 28.5528C39.8823 26.9447 41.8973 25.2811 43.681 25.1425C45.0189 25.0316 46.3732 25.0593 47.7275 25.1147C48.1734 25.1286 48.768 25.3781 48.9827 25.6831C49.4452 26.3486 50.0893 26.2931 50.8491 26.2931C50.8491 24.782 50.8491 23.2987 50.8491 21.7876C50.0728 21.7876 49.3461 21.7599 48.6359 22.2035C48.256 22.453 47.678 22.5362 47.1825 22.6055C46.5714 22.6887 45.9603 22.7164 45.3492 22.6887C43.9783 22.6194 42.5249 22.8551 41.3853 21.9124C41.2862 21.8292 41.0715 21.8292 40.9228 21.8292C37.8674 21.8569 34.8119 21.8569 31.7564 21.9262C30.9966 21.9401 30.1708 22.0649 29.5102 22.356C25.8766 23.9918 23.168 26.404 21.3347 29.5093C21.2191 29.7034 21.1365 29.9114 21.0374 30.1055C21.6981 29.745 22.2101 29.3014 22.8046 28.941C24.7866 27.7349 26.7685 26.4872 28.833 25.3781C30.4021 24.5464 31.6738 24.7959 32.9786 25.9188C33.1272 26.0436 33.2759 26.1822 33.3915 26.3347C34.0521 27.2774 34.7128 28.2339 35.4395 29.2459ZM35.3239 31.6443C35.3239 31.977 35.3239 32.2542 35.3239 32.5176C35.3239 42.5684 35.3239 52.6052 35.3074 62.656C35.3074 63.9591 35.3404 63.9868 36.9094 64.0839C37.0085 64.0839 37.0911 64.0839 37.1902 64.0839C38.6271 64.0284 38.7097 63.973 38.7097 62.7808C38.7262 52.73 38.7262 42.6931 38.7427 32.6424C38.7427 32.2958 38.7427 31.9354 38.7427 31.6304C37.5701 31.6443 36.4965 31.6443 35.3239 31.6443Z" fill="#FFAC30"/>
<path d="M53.0787 11.9865C53.1283 11.3211 53.1943 10.7804 53.2274 10.2259C53.2934 9.15841 53.3595 8.07709 53.3925 7.00963C53.4256 6.42738 53.6898 6.06694 54.4496 6.05308C56.96 6.03922 59.4705 6.02535 61.9809 6.03922C62.6581 6.03922 62.9389 6.42738 62.9389 7.00963C62.9058 10.3368 62.9058 13.6501 62.8728 16.9772C62.8728 17.6703 62.8067 18.3774 62.8563 19.0567C62.8728 19.3201 63.104 19.6112 63.3353 19.8053C65.0695 21.1916 66.8367 22.5502 68.5874 23.9087C70.1895 25.1564 71.7915 26.3902 73.3936 27.6379C73.856 27.9983 74.0377 28.442 73.823 28.9272C73.6083 29.4124 73.0963 29.6896 72.5017 29.6896C72.1384 29.6896 71.6924 29.551 71.4282 29.3569C68.158 26.8477 64.9208 24.2969 61.6671 21.7738C58.1327 19.0289 54.5982 16.3118 51.0472 13.5807C47.0008 10.4615 42.9378 7.35621 38.8914 4.23702C38.2803 3.76567 37.6857 3.28046 37.0746 2.80912C34.7293 4.62518 32.384 6.44125 30.0222 8.24345C24.5554 12.4162 19.072 16.589 13.6217 20.7757C10.4671 23.1879 7.32901 25.6139 4.20746 28.0399C3.64591 28.4697 3.16694 28.9688 2.62191 29.4124C1.92823 29.9946 1.35016 29.9253 0.491325 29.2322C-0.152805 28.7054 -0.185837 28.3449 0.524357 27.7627C2.209 26.3902 3.91017 25.0455 5.64436 23.7147C8.0392 21.8709 10.434 20.0409 12.8454 18.211C15.8679 15.9236 18.9068 13.6362 21.9128 11.3349C25.4142 8.65934 28.8991 5.9699 32.384 3.28046C33.5566 2.37936 34.7128 1.4644 35.8689 0.563297C36.8103 -0.171446 37.2893 -0.199173 38.2307 0.549434C40.1631 2.07437 42.0459 3.6409 44.0114 5.15198C46.9843 7.41166 49.9737 9.64362 53.0787 11.9865ZM59.8669 17.0604C59.8669 14.1214 59.8669 11.3349 59.8669 8.5623C58.7603 8.5623 57.7198 8.5623 56.6793 8.5623C56.3159 8.5623 56.1342 8.64548 56.1342 9.00592C56.1012 10.5724 56.0186 12.139 55.9525 13.7194C55.9525 13.858 55.9691 14.0659 56.0847 14.1491C57.2903 15.0918 58.5291 16.0345 59.8669 17.0604Z" fill="white"/>
<path d="M63.0875 57.1386C63.0875 53.7976 63.0875 50.4843 63.0875 47.1571C63.071 40.8494 63.0545 34.5417 63.038 28.234C63.038 28.0538 63.0214 27.8736 63.071 27.6934C63.2031 27.1527 63.9133 26.9448 64.3758 27.3329C64.9373 27.7904 65.4989 28.2618 65.9448 28.7886C66.1595 29.052 66.176 29.4678 66.176 29.8144C66.1925 34.9438 66.2091 40.087 66.2091 45.2163C66.2091 49.5 66.2091 53.7698 66.1925 58.0535C66.1925 59.121 65.6475 59.6478 64.4088 59.6478C58.4134 59.6616 52.4181 59.6617 46.4227 59.6617C45.4648 59.6617 45.3492 59.523 45.2996 58.7051C45.217 57.2772 45.3987 57.1386 47.0999 57.1386C52.3685 57.1663 57.6207 57.1802 62.8893 57.194C62.8893 57.2079 62.9389 57.1802 63.0875 57.1386Z" fill="white"/>
<path d="M10.913 57.2078C15.0421 57.2078 19.105 57.2078 23.1845 57.2078C24.6544 57.2078 26.1244 57.18 27.5943 57.1246C28.255 57.0968 28.5688 57.3048 28.6018 57.8455C28.6183 58.1089 28.6348 58.3584 28.6514 58.6218C28.6844 59.6338 28.5853 59.7308 27.3466 59.7447C25.1665 59.7586 22.9863 59.7586 20.8062 59.7447C17.1396 59.717 13.4565 59.6892 9.78992 59.6477C8.58424 59.6338 8.00618 59.0793 8.00618 58.0534C8.00618 48.5849 8.02269 39.1164 7.97314 29.6479C7.97314 28.8161 8.25392 28.2339 9.01366 27.7626C9.24489 27.6239 9.44308 27.4437 9.65779 27.2912C10.2193 26.8753 10.7313 27.014 10.8635 27.6378C10.946 28.0675 10.9295 28.5112 10.9295 28.9409C10.8965 38.2846 10.8965 47.6422 10.88 56.9859C10.88 57.0414 10.8965 57.0968 10.913 57.2078Z" fill="white"/>
</svg>
