<svg width="34" height="34" viewBox="0 0 34 34" fill="none" xmlns="http://www.w3.org/2000/svg">
<path d="M34 26.8523C34 26.6832 34 26.5142 33.9276 26.3452C33.7585 25.8381 32.5753 25.3068 32.0923 25.0653C30.7159 24.2926 29.3153 23.544 27.9631 22.7472C27.3352 22.3608 26.5625 21.6364 25.8139 21.6364C24.3409 21.6364 22.1918 26.0071 20.8878 26.0071C20.2358 26.0071 19.3906 25.4034 18.8111 25.0653C14.4162 22.6264 11.3736 19.5838 8.93466 15.1889C8.59659 14.6094 7.9929 13.7642 7.9929 13.1122C7.9929 11.8082 12.3636 9.65909 12.3636 8.18608C12.3636 7.4375 11.6392 6.66477 11.2528 6.03693C10.456 4.68466 9.70739 3.28409 8.93466 1.90767C8.69318 1.42472 8.16193 0.241478 7.65483 0.0724435C7.48579 0 7.31676 0 7.14772 0C6.27841 0 4.58807 0.386365 3.79119 0.74858C2.60795 1.25568 1.83523 2.60795 1.23154 3.6946C0.458808 5.11932 0 6.56818 0 8.18608C0 10.4318 0.917614 12.4602 1.66619 14.5128C2.19744 15.9858 2.84943 17.4105 3.67046 18.7386C6.20597 22.8437 11.1562 27.794 15.2614 30.3295C16.5895 31.1506 18.0142 31.8026 19.4872 32.3338C21.5398 33.0824 23.5682 34 25.8139 34C27.4318 34 28.8807 33.5412 30.3054 32.7685C31.392 32.1648 32.7443 31.392 33.2514 30.2088C33.6136 29.4119 34 27.7216 34 26.8523Z" fill="white"/>
</svg>
