<svg width="38" height="32" viewBox="0 0 38 32" fill="none" xmlns="http://www.w3.org/2000/svg">
<path d="M37.8957 2.96123L32.1315 30.0318C31.6794 31.9614 30.6339 32.4722 28.9951 31.5641L20.2641 25.0944L16.0257 29.1806C15.4606 29.7481 14.8672 30.0318 14.2456 30.0318L14.9237 21.0934L31.1143 6.45147C31.5099 6.0542 31.5099 5.8272 31.1143 5.77044C30.7752 5.65694 30.4079 5.74207 30.0123 6.02583L10.0072 18.7099L1.36099 15.9858C0.40029 15.702 -0.0518022 15.2764 0.00470929 14.7089C0.0612208 14.1413 0.654592 13.6589 1.78482 13.2617L35.4374 0.152014C36.2851 -0.131745 36.9632 -0.0182417 37.4718 0.492525C37.9804 0.946539 38.1217 1.76944 37.8957 2.96123Z" fill="#DBDBDB"/>
</svg>
