<svg width="38" height="38" viewBox="0 0 38 38" fill="none" xmlns="http://www.w3.org/2000/svg">
<path d="M5.56496 32.435C7.30972 34.1797 9.34152 35.5496 11.6042 36.5066C13.947 37.4976 16.4353 38 19 38C21.5647 38 24.0531 37.4976 26.3958 36.5066C28.6584 35.5497 30.6903 34.1797 32.435 32.435C34.1797 30.6903 35.5496 28.6585 36.5066 26.3959C37.4975 24.0531 38 21.5647 38 19C38 16.4353 37.4975 13.947 36.5066 11.6042C35.5496 9.34157 34.1797 7.30972 32.435 5.565C30.6903 3.82029 28.6585 2.45041 26.3958 1.4934C24.053 0.502439 21.5647 0 19 0C16.4353 0 13.9469 0.502439 11.6042 1.4934C9.34157 2.45037 7.30972 3.82029 5.56496 5.565C3.82025 7.30972 2.45042 9.34157 1.4934 11.6042C0.50249 13.947 0 16.4353 0 19C0 21.5647 0.502444 24.0531 1.4934 26.3959C2.45037 28.6584 3.82025 30.6903 5.56496 32.435ZM2.72019 12.123C3.61005 10.0192 4.88407 8.12966 6.50686 6.50686C8.12962 4.88406 10.0192 3.61 12.123 2.72019C14.3008 1.79905 16.6145 1.33203 19 1.33203C21.3855 1.33203 23.6992 1.79905 25.877 2.72019C27.9808 3.61 29.8703 4.88406 31.4931 6.50686C33.1159 8.12966 34.39 10.0192 35.2798 12.123C36.2009 14.3008 36.668 16.6145 36.668 19C36.668 21.3855 36.2009 23.6992 35.2798 25.877C34.3899 27.9807 33.1159 29.8703 31.4931 31.4931C29.8704 33.1159 27.9808 34.39 25.877 35.2798C23.6992 36.2009 21.3855 36.668 19 36.668C16.6145 36.668 14.3008 36.2009 12.123 35.2798C10.0192 34.39 8.12966 33.1159 6.50686 31.4931C4.88407 29.8703 3.61 27.9807 2.72019 25.877C1.7991 23.6992 1.33203 21.3855 1.33203 19C1.33203 16.6145 1.79905 14.3008 2.72019 12.123Z" fill="white"/>
<path d="M19 20.6082C19.5211 20.6082 19.9841 20.3601 20.2779 19.9759L24.0025 20.8281C24.0525 20.8396 24.1024 20.8451 24.1516 20.8451C24.4553 20.8451 24.7297 20.636 24.8003 20.3275C24.8823 19.9689 24.6582 19.6117 24.2996 19.5297L20.5756 18.6776C20.4718 18.1683 20.1272 17.747 19.666 17.5368V8.29883C19.666 7.93098 19.3678 7.63281 19 7.63281C18.6322 7.63281 18.334 7.93102 18.334 8.29883V17.5367C17.7784 17.79 17.392 18.3498 17.392 19.0002C17.392 19.8883 18.1119 20.6082 19 20.6082Z" fill="white"/>
<path d="M19 5.26619C19.3678 5.26619 19.666 4.96798 19.666 4.60018V3.8789C19.666 3.51106 19.3678 3.21289 19 3.21289C18.6322 3.21289 18.334 3.5111 18.334 3.8789V4.60018C18.3339 4.96803 18.6322 5.26619 19 5.26619Z" fill="white"/>
<path d="M8.34693 9.28861C8.47697 9.41866 8.64744 9.48366 8.81786 9.48366C8.98828 9.48366 9.15875 9.41861 9.28879 9.28857C9.54892 9.02848 9.54892 8.60675 9.28879 8.34667L8.77872 7.83665C8.51864 7.57656 8.09691 7.57661 7.83682 7.83665C7.57669 8.09673 7.57669 8.51846 7.83682 8.77855L8.34693 9.28861Z" fill="white"/>
<path d="M3.87905 19.666H4.60037C4.96822 19.666 5.26639 19.3678 5.26639 19C5.26639 18.6322 4.96822 18.334 4.60037 18.334H3.87905C3.5112 18.334 3.21304 18.6322 3.21304 19C3.21304 19.3678 3.5112 19.666 3.87905 19.666Z" fill="white"/>
<path d="M8.30786 30.3581C8.47828 30.3581 8.64874 30.2931 8.77878 30.1631L9.28885 29.6531C9.54898 29.393 9.54898 28.9713 9.28885 28.7112C9.02881 28.4511 8.60708 28.4511 8.34695 28.7112L7.83688 29.2212C7.57675 29.4813 7.57675 29.903 7.83688 30.1631C7.96697 30.2931 8.13739 30.3581 8.30786 30.3581Z" fill="white"/>
<path d="M19 32.7339C18.6322 32.7339 18.334 33.0321 18.334 33.3999V34.1212C18.334 34.489 18.6322 34.7872 19 34.7872C19.3678 34.7872 19.666 34.489 19.666 34.1212V33.3999C19.666 33.0321 19.3678 32.7339 19 32.7339Z" fill="white"/>
<path d="M29.2212 30.1631C29.3512 30.2932 29.5217 30.3582 29.6921 30.3582C29.8625 30.3582 30.033 30.2931 30.163 30.1631C30.4232 29.903 30.4232 29.4813 30.163 29.2212L29.653 28.7112C29.3929 28.4511 28.9712 28.4511 28.7111 28.7112C28.4509 28.9712 28.4509 29.393 28.7111 29.6531L29.2212 30.1631Z" fill="white"/>
<path d="M33.3996 19.666H34.1209C34.4888 19.666 34.787 19.3678 34.787 19C34.787 18.6322 34.4888 18.334 34.1209 18.334H33.3996C33.0318 18.334 32.7336 18.6322 32.7336 19C32.7336 19.3678 33.0318 19.666 33.3996 19.666Z" fill="white"/>
<path d="M29.1821 9.48412C29.3525 9.48412 29.5229 9.41907 29.653 9.28907L30.163 8.77906C30.4232 8.51897 30.4232 8.09724 30.163 7.83715C29.903 7.57707 29.4813 7.57707 29.2211 7.83715L28.7111 8.34717C28.4509 8.60726 28.4509 9.02899 28.7111 9.28907C28.8412 9.41907 29.0116 9.48412 29.1821 9.48412Z" fill="white"/>
</svg>
