<svg width="46" height="33" viewBox="0 0 46 33" fill="none" xmlns="http://www.w3.org/2000/svg">
<path d="M45.0733 5.15625C45.2418 5.84375 45.3822 6.70312 45.4945 7.73438C45.663 8.76562 45.7753 9.79688 45.8315 10.8281C45.8877 11.8021 45.9158 12.7188 45.9158 13.5781C45.9719 14.4375 46 15.1536 46 15.7266V16.5C46 21.6562 45.6911 25.4661 45.0733 27.9297C44.7924 28.9036 44.2869 29.763 43.5568 30.5078C42.8266 31.2526 41.956 31.7682 40.9451 32.0547C39.8779 32.3411 37.8559 32.5703 34.8791 32.7422C31.9023 32.8568 29.1783 32.9427 26.707 33H23C13.3956 33 7.41392 32.6849 5.05495 32.0547C2.86447 31.4245 1.4884 30.0495 0.92674 27.9297C0.64591 26.8411 0.421245 25.3516 0.252747 23.4609C0.140415 21.513 0.0561661 19.8802 0 18.5625V16.5C0 11.401 0.308913 7.61979 0.92674 5.15625C1.20757 4.125 1.71306 3.23698 2.44322 2.49219C3.17338 1.7474 4.04396 1.23177 5.05495 0.945312C6.1221 0.658854 8.14408 0.458333 11.1209 0.34375C14.0977 0.171875 16.8217 0.0572917 19.293 0H23C32.6044 0 38.5861 0.315104 40.9451 0.945312C41.956 1.23177 42.8266 1.7474 43.5568 2.49219C44.2869 3.23698 44.7924 4.125 45.0733 5.15625ZM18.2821 23.5469L30.3297 16.5L18.2821 9.53906V23.5469Z" fill="#DBDBDB"/>
</svg>
